<svg width="43" height="41" viewBox="0 0 43 41" fill="none" xmlns="http://www.w3.org/2000/svg">
<rect x="1" y="5" width="41" height="35" stroke="url(#paint0_linear_0_425)" stroke-width="2"/>
<path d="M35 19H24" stroke="url(#paint1_linear_0_425)" stroke-width="2"/>
<path d="M35 29H24" stroke="url(#paint2_linear_0_425)" stroke-width="2"/>
<path d="M32 0V5" stroke="url(#paint3_linear_0_425)" stroke-width="2"/>
<path d="M11 0V5" stroke="url(#paint4_linear_0_425)" stroke-width="2"/>
<path d="M22 0V5" stroke="url(#paint5_linear_0_425)" stroke-width="2"/>
<path d="M8 18L11.375 21L17 16" stroke="url(#paint6_linear_0_425)" stroke-width="2"/>
<path d="M8 28L11.375 31L17 26" stroke="url(#paint7_linear_0_425)" stroke-width="2"/>
<defs>
<linearGradient id="paint0_linear_0_425" x1="21.5" y1="-3.75" x2="5.70399" y2="33.2578" gradientUnits="userSpaceOnUse">
<stop stop-color="#E30613"/>
<stop offset="1" stop-color="#FF4444"/>
</linearGradient>
<linearGradient id="paint1_linear_0_425" x1="29.5" y1="17.5" x2="29.2746" y2="19.9795" gradientUnits="userSpaceOnUse">
<stop stop-color="#E30613"/>
<stop offset="1" stop-color="#FF4444"/>
</linearGradient>
<linearGradient id="paint2_linear_0_425" x1="29.5" y1="27.5" x2="29.2746" y2="29.9795" gradientUnits="userSpaceOnUse">
<stop stop-color="#E30613"/>
<stop offset="1" stop-color="#FF4444"/>
</linearGradient>
<linearGradient id="paint3_linear_0_425" x1="32" y1="-1.25" x2="28.9512" y2="1.18902" gradientUnits="userSpaceOnUse">
<stop stop-color="#E30613"/>
<stop offset="1" stop-color="#FF4444"/>
</linearGradient>
<linearGradient id="paint4_linear_0_425" x1="11" y1="-1.25" x2="7.95122" y2="1.18902" gradientUnits="userSpaceOnUse">
<stop stop-color="#E30613"/>
<stop offset="1" stop-color="#FF4444"/>
</linearGradient>
<linearGradient id="paint5_linear_0_425" x1="22" y1="-1.25" x2="18.9512" y2="1.18902" gradientUnits="userSpaceOnUse">
<stop stop-color="#E30613"/>
<stop offset="1" stop-color="#FF4444"/>
</linearGradient>
<linearGradient id="paint6_linear_0_425" x1="12.5" y1="14.75" x2="10.8883" y2="20.5523" gradientUnits="userSpaceOnUse">
<stop stop-color="#E30613"/>
<stop offset="1" stop-color="#FF4444"/>
</linearGradient>
<linearGradient id="paint7_linear_0_425" x1="12.5" y1="24.75" x2="10.8883" y2="30.5523" gradientUnits="userSpaceOnUse">
<stop stop-color="#E30613"/>
<stop offset="1" stop-color="#FF4444"/>
</linearGradient>
</defs>
</svg>
